<svg width="14" height="16" viewBox="0 0 14 16" fill="none" xmlns="http://www.w3.org/2000/svg">
<path d="M6.16663 6.48808C6.16663 6.42178 6.14029 6.35819 6.0934 6.31131C6.04652 6.26442 5.98293 6.23808 5.91663 6.23808C5.85032 6.23808 5.78673 6.26442 5.73985 6.31131C5.69296 6.35819 5.66663 6.42178 5.66663 6.48808V11.9881C5.66663 12.0544 5.69296 12.118 5.73985 12.1649C5.78673 12.2117 5.85032 12.2381 5.91663 12.2381C5.98293 12.2381 6.04652 12.2117 6.0934 12.1649C6.14029 12.118 6.16663 12.0544 6.16663 11.9881V6.48808ZM8.41663 6.23808C8.48293 6.23808 8.54652 6.26442 8.5934 6.31131C8.64029 6.35819 8.66663 6.42178 8.66663 6.48808V11.9881C8.66663 12.0544 8.64029 12.118 8.5934 12.1649C8.54652 12.2117 8.48293 12.2381 8.41663 12.2381C8.35032 12.2381 8.28673 12.2117 8.23985 12.1649C8.19296 12.118 8.16663 12.0544 8.16663 11.9881V6.48808C8.16663 6.42178 8.19296 6.35819 8.23985 6.31131C8.28673 6.26442 8.35032 6.23808 8.41663 6.23808ZM9.41663 3.48808V3.73808H13.4166C13.4829 3.73808 13.5465 3.76442 13.5934 3.81131C13.6403 3.85819 13.6666 3.92178 13.6666 3.98808C13.6666 4.05439 13.6403 4.11798 13.5934 4.16486C13.5465 4.21174 13.4829 4.23808 13.4166 4.23808H12.1451L11.3311 13.1916C11.2803 13.7508 11.0223 14.2709 10.6076 14.6495C10.1929 15.0282 9.65167 15.2381 9.09013 15.2381H5.24313C4.68158 15.2381 4.14031 15.0282 3.72565 14.6495C3.31099 14.2709 3.05291 13.7508 3.00213 13.1916L2.18813 4.23808H0.916626C0.850322 4.23808 0.786733 4.21174 0.739849 4.16486C0.692965 4.11798 0.666626 4.05439 0.666626 3.98808C0.666626 3.92178 0.692965 3.85819 0.739849 3.81131C0.786733 3.76442 0.850322 3.73808 0.916626 3.73808H4.91663V3.48808C4.91663 2.89135 5.15368 2.31905 5.57564 1.89709C5.99759 1.47514 6.56989 1.23808 7.16663 1.23808C7.76336 1.23808 8.33566 1.47514 8.75762 1.89709C9.17957 2.31905 9.41663 2.89135 9.41663 3.48808ZM5.41663 3.48808V3.73808H8.91663V3.48808C8.91663 3.02395 8.73225 2.57883 8.40406 2.25065C8.07587 1.92246 7.63075 1.73808 7.16663 1.73808C6.7025 1.73808 6.25738 1.92246 5.92919 2.25065C5.601 2.57883 5.41663 3.02395 5.41663 3.48808ZM2.69063 4.23808L3.50063 13.1466C3.54017 13.5813 3.74077 13.9856 4.06307 14.2801C4.38536 14.5745 4.80608 14.7379 5.24263 14.7381H9.08963C9.52635 14.7381 9.94731 14.5749 10.2698 14.2804C10.5923 13.9859 10.7931 13.5815 10.8326 13.1466L11.6431 4.23808H2.69063Z" stroke="#262626" stroke-width="0.583333"/>
</svg>
