<svg width="92" height="31" viewBox="0 0 92 31" fill="none" xmlns="http://www.w3.org/2000/svg">
<g clip-path="url(#clip0_14_60)">
<path d="M3.12754 18.4879L3.79147 20.969C4.56713 23.8649 4.95624 25.3134 5.83592 26.2522C6.53022 26.9929 7.42845 27.5113 8.41717 27.7419C9.67055 28.0347 11.1191 27.6468 14.0163 26.8712C16.9109 26.0955 18.3595 25.7077 19.2982 24.828C19.3761 24.7544 19.4515 24.6791 19.5242 24.602C19.0869 24.5626 18.6521 24.4983 18.2221 24.4094C17.3283 24.2321 16.2662 23.9471 15.0103 23.6106L14.8729 23.5734L14.8408 23.5656C13.4744 23.1984 12.3327 22.8927 11.4209 22.564C10.4616 22.2172 9.59093 21.7896 8.84995 21.0961C7.8307 20.1412 7.11745 18.9055 6.80036 17.5453C6.5692 16.5578 6.63598 15.5895 6.81577 14.5865C6.98785 13.6246 7.29606 12.4714 7.66591 11.0909L8.35296 8.5302L8.37608 8.44031C5.91041 9.10424 4.61208 9.49721 3.74652 10.3075C3.00489 11.0024 2.48602 11.9016 2.25557 12.8914C1.96277 14.1435 2.3506 15.592 3.12754 18.4879Z" fill="#DF9385"/>
<path fill-rule="evenodd" clip-rule="evenodd" d="M26.3395 13.3498L25.6743 15.8309C24.8974 18.7268 24.5095 20.1753 23.6298 21.1141C22.9357 21.8553 22.0375 22.3741 21.0486 22.6051C20.9245 22.6342 20.7982 22.6564 20.6698 22.6718C19.4947 22.817 18.0603 22.433 15.4508 21.7344C12.5549 20.9574 11.1063 20.5696 10.1675 19.6899C9.42613 18.9954 8.90727 18.0967 8.67659 17.1074C8.38379 15.854 8.77162 14.4067 9.54856 11.5108L10.2125 9.02975L10.5258 7.86755C11.1101 5.72806 11.5031 4.55045 12.2569 3.74526C12.9512 3.00453 13.8495 2.48615 14.8382 2.25558C16.0916 1.96278 17.5402 2.35061 20.4373 3.12755C23.3319 3.90321 24.7805 4.29104 25.7192 5.16944C26.4609 5.86426 26.9797 6.76346 27.2102 7.75325C27.503 9.00663 27.1152 10.4539 26.3395 13.3498ZM13.7813 12.1812C13.8141 12.059 13.8706 11.9444 13.9477 11.8441C14.0247 11.7438 14.1208 11.6596 14.2304 11.5964C14.34 11.5332 14.461 11.4922 14.5864 11.4757C14.7118 11.4593 14.8393 11.4677 14.9615 11.5006L21.1642 13.1636C21.2896 13.1933 21.4077 13.2479 21.5117 13.3242C21.6156 13.4004 21.7031 13.4967 21.7692 13.6074C21.8352 13.7181 21.8783 13.8409 21.896 13.9686C21.9137 14.0963 21.9056 14.2262 21.8721 14.3507C21.8387 14.4751 21.7806 14.5916 21.7013 14.6932C21.622 14.7948 21.5232 14.8795 21.4106 14.9422C21.298 15.0049 21.1739 15.0444 21.0458 15.0583C20.9177 15.0722 20.788 15.0602 20.6646 15.0231L14.4619 13.3614C14.2154 13.2952 14.0053 13.1338 13.8777 12.9128C13.75 12.6917 13.7154 12.4278 13.7813 12.1812ZM12.7847 15.9041C12.851 15.6576 13.0123 15.4474 13.2334 15.3198C13.4544 15.1922 13.7171 15.1575 13.9636 15.2235L17.6853 16.2213C17.8113 16.2504 17.9301 16.3045 18.0348 16.3805C18.1394 16.4565 18.2276 16.5528 18.2942 16.6637C18.3608 16.7745 18.4044 16.8977 18.4224 17.0257C18.4404 17.1538 18.4325 17.2841 18.399 17.4091C18.3655 17.534 18.3072 17.6509 18.2276 17.7528C18.148 17.8547 18.0487 17.9395 17.9356 18.0022C17.8225 18.0649 17.6979 18.1041 17.5693 18.1176C17.4407 18.1312 17.3107 18.1186 17.187 18.0808L13.4654 17.0843C13.3432 17.0515 13.2286 16.995 13.1283 16.9179C13.028 16.8408 12.9438 16.7448 12.8806 16.6352C12.8174 16.5256 12.7764 16.4046 12.7599 16.2792C12.7435 16.1537 12.7519 16.0263 12.7847 15.9041Z" fill="#DF9385"/>
</g>
<path d="M39.8601 10.0854C40.7847 10.0854 41.5963 10.2447 42.2949 10.5632C42.9935 10.8816 43.5894 11.3542 44.0825 11.9809L42.8959 13.3525C42.4747 12.8182 42.0124 12.4278 41.509 12.1813C41.0159 11.9244 40.4405 11.796 39.783 11.796C39.3515 11.796 38.992 11.8525 38.7043 11.9655C38.4269 12.0785 38.2214 12.2275 38.0879 12.4124C37.9646 12.5973 37.9029 12.8028 37.9029 13.0288C37.9029 13.3062 38.0108 13.5425 38.2266 13.7377C38.4423 13.9226 38.8122 14.0767 39.3361 14.2L41.2316 14.6315C42.2384 14.8575 42.9576 15.1966 43.3891 15.6486C43.8308 16.0904 44.0517 16.6657 44.0517 17.3746C44.0517 18.0424 43.8771 18.6177 43.5278 19.1005C43.1785 19.5731 42.6905 19.9378 42.0638 20.1947C41.4371 20.4413 40.7179 20.5645 39.9063 20.5645C39.1974 20.5645 38.545 20.4823 37.9492 20.318C37.3636 20.1433 36.8396 19.907 36.3773 19.6091C35.915 19.3112 35.5297 18.967 35.2215 18.5766L36.4235 17.1434C36.6598 17.4722 36.9526 17.765 37.3019 18.0218C37.6512 18.2787 38.0468 18.4841 38.4885 18.6382C38.9406 18.7821 39.4132 18.854 39.9063 18.854C40.3275 18.854 40.682 18.8077 40.9696 18.7153C41.2676 18.6125 41.4884 18.4739 41.6323 18.2992C41.7864 18.1143 41.8634 17.8934 41.8634 17.6366C41.8634 17.3694 41.771 17.1434 41.586 16.9585C41.4114 16.7633 41.0826 16.6143 40.5998 16.5116L38.5348 16.0493C37.9389 15.9054 37.4252 15.7205 36.9937 15.4945C36.5725 15.2582 36.2489 14.9603 36.0229 14.6007C35.8071 14.2308 35.6993 13.7942 35.6993 13.2908C35.6993 12.6847 35.8636 12.1402 36.1924 11.6573C36.5211 11.1744 36.9937 10.7943 37.6102 10.5169C38.2368 10.2293 38.9868 10.0854 39.8601 10.0854ZM45.8027 20.4104V12.7052H47.6982L47.8215 15.0168L47.5595 14.7702C47.6828 14.2668 47.878 13.8507 48.1451 13.522C48.4122 13.1932 48.7358 12.9518 49.116 12.7977C49.5064 12.6333 49.9327 12.5511 50.395 12.5511C50.9293 12.5511 51.4018 12.6538 51.8128 12.8593C52.234 13.0648 52.5628 13.3781 52.7991 13.7994C53.0456 14.2103 53.1689 14.7291 53.1689 15.3558V20.4104H51.0577V15.9568C51.0577 15.2993 50.9293 14.8473 50.6724 14.6007C50.4156 14.3439 50.0817 14.2154 49.6707 14.2154C49.3831 14.2154 49.1006 14.2874 48.8232 14.4312C48.5561 14.5647 48.3352 14.7856 48.1605 15.0938C47.9961 15.402 47.914 15.813 47.914 16.3267V20.4104H45.8027ZM59.7359 15.4945C59.7359 15.0527 59.6075 14.7086 59.3507 14.462C59.1041 14.2154 58.7753 14.0922 58.3644 14.0922C57.9843 14.0922 57.6504 14.1898 57.3627 14.385C57.0751 14.5802 56.8644 14.9038 56.7309 15.3558L54.9279 14.801C55.1025 14.123 55.4826 13.5785 56.0682 13.1675C56.6641 12.7566 57.4603 12.5511 58.4569 12.5511C59.1349 12.5511 59.7256 12.659 60.2291 12.8747C60.7325 13.0802 61.1229 13.3935 61.4002 13.8148C61.6879 14.236 61.8317 14.7651 61.8317 15.402V18.5304C61.8317 18.9208 62.0167 19.116 62.3865 19.116C62.5612 19.116 62.7255 19.0903 62.8796 19.0389L62.7564 20.3488C62.4893 20.4823 62.1554 20.5491 61.7547 20.5491C61.3951 20.5491 61.0715 20.4875 60.7838 20.3642C60.4962 20.2409 60.2701 20.056 60.1058 19.8094C59.9414 19.5526 59.8592 19.2341 59.8592 18.854V18.7923L60.2291 18.7307C60.1674 19.1211 59.9979 19.455 59.7205 19.7324C59.4431 19.9995 59.1041 20.205 58.7034 20.3488C58.313 20.4926 57.9072 20.5645 57.486 20.5645C56.962 20.5645 56.51 20.4875 56.1299 20.3334C55.7498 20.169 55.457 19.9327 55.2515 19.6245C55.046 19.3163 54.9433 18.9362 54.9433 18.4841C54.9433 17.9088 55.1282 17.4414 55.4981 17.0818C55.8679 16.7119 56.397 16.4602 57.0853 16.3267L59.9825 15.7411L59.9671 17.051L58.1178 17.4208C57.7685 17.4927 57.5014 17.5903 57.3165 17.7136C57.1418 17.8266 57.0545 18.0167 57.0545 18.2838C57.0545 18.5406 57.147 18.7358 57.3319 18.8694C57.5271 19.0029 57.7582 19.0697 58.0254 19.0697C58.2411 19.0697 58.4517 19.044 58.6572 18.9927C58.8627 18.9413 59.0476 18.8591 59.212 18.7461C59.3763 18.6331 59.5048 18.479 59.5972 18.2838C59.6897 18.0886 59.7359 17.8523 59.7359 17.5749V15.4945ZM64.1929 23.6466V12.7052H66.0884L66.2271 15.1555L65.9651 14.8781C66.0576 14.426 66.2271 14.0254 66.4737 13.6761C66.7305 13.3268 67.0541 13.0545 67.4445 12.8593C67.8349 12.6538 68.2715 12.5511 68.7544 12.5511C69.3811 12.5511 69.941 12.7104 70.4341 13.0288C70.9273 13.3473 71.3125 13.8045 71.5899 14.4004C71.8776 14.986 72.0214 15.7 72.0214 16.5424C72.0214 17.3848 71.8776 18.1091 71.5899 18.7153C71.3023 19.3112 70.9067 19.7683 70.4033 20.0868C69.9102 20.4053 69.3451 20.5645 68.7082 20.5645C68.0301 20.5645 67.4651 20.3745 67.013 19.9943C66.5712 19.6142 66.2682 19.1365 66.1038 18.5612L66.3041 18.2376V23.6466H64.1929ZM68.0917 18.9464C68.6568 18.9464 69.0986 18.7461 69.417 18.3454C69.7458 17.9345 69.9102 17.3386 69.9102 16.5578C69.9102 15.777 69.7509 15.1863 69.4325 14.7856C69.1242 14.3747 68.6876 14.1692 68.1226 14.1692C67.763 14.1692 67.4445 14.2668 67.1671 14.462C66.9 14.6469 66.6894 14.9192 66.5353 15.2788C66.3812 15.6281 66.3041 16.0544 66.3041 16.5578C66.3041 17.051 66.3761 17.4773 66.5199 17.8369C66.6637 18.1965 66.8692 18.4739 67.1363 18.6691C67.4137 18.854 67.7322 18.9464 68.0917 18.9464ZM74.9178 11.5957C74.4761 11.5957 74.1473 11.5032 73.9316 11.3183C73.7158 11.1231 73.608 10.8406 73.608 10.4707C73.608 10.0906 73.7158 9.80805 73.9316 9.62313C74.1473 9.42793 74.4761 9.33033 74.9178 9.33033C75.3596 9.33033 75.6884 9.42793 75.9041 9.62313C76.1199 9.80805 76.2277 10.0906 76.2277 10.4707C76.2277 10.8406 76.1199 11.1231 75.9041 11.3183C75.6884 11.5032 75.3596 11.5957 74.9178 11.5957ZM75.9658 12.7052V20.4104H73.8545V12.7052H75.9658ZM81.6403 9.17622C81.9999 9.17622 82.3235 9.21732 82.6111 9.29951C82.9091 9.37142 83.13 9.46389 83.2738 9.5769L82.981 10.9792C82.868 10.9073 82.7396 10.8508 82.5957 10.8097C82.4519 10.7686 82.2824 10.7481 82.0872 10.7481C81.6865 10.7481 81.368 10.8406 81.1317 11.0255C80.8954 11.2001 80.7773 11.5032 80.7773 11.9347V12.998L80.8698 13.4141V20.4104H78.7585V11.7806C78.7585 11.3491 78.8304 10.969 78.9743 10.6402C79.1181 10.3115 79.3184 10.0392 79.5753 9.82346C79.8321 9.60772 80.1352 9.44848 80.4845 9.34574C80.8441 9.23273 81.2293 9.17622 81.6403 9.17622ZM83.2121 12.7052V14.2771H77.4178V12.7052H83.2121ZM91.7222 12.7052L88.6093 20.8882C88.3627 21.5868 88.0853 22.1415 87.7771 22.5525C87.4792 22.9634 87.1299 23.2614 86.7292 23.4463C86.3388 23.6312 85.8714 23.7237 85.3269 23.7237C84.9262 23.7237 84.5564 23.6723 84.2173 23.5696C83.8886 23.4771 83.6009 23.3538 83.3543 23.1997L83.8012 21.6741C83.9964 21.8282 84.2019 21.9361 84.4177 21.9977C84.6334 22.0696 84.88 22.1056 85.1574 22.1056C85.445 22.1056 85.6916 22.0439 85.8971 21.9207C86.1128 21.7974 86.2926 21.5508 86.4364 21.181L86.6984 20.5183L85.8508 18.5149L83.493 12.7052H85.8354L87.2994 17.3283L87.7001 18.8694L88.1778 17.2359L89.5802 12.7052H91.7222Z" fill="#262626"/>
<defs>
<clipPath id="clip0_14_60">
<rect width="30.8209" height="30.8209" fill="white"/>
</clipPath>
</defs>
</svg>
