<svg width="103" height="35" viewBox="0 0 103 35" fill="none" xmlns="http://www.w3.org/2000/svg">
<g clip-path="url(#clip0_9_85)">
<rect x="0.375" y="0.625" width="33" height="33.75" rx="16.5" fill="#DF9385"/>
<g filter="url(#filter0_b_9_85)">
<path d="M20.625 26.875C22.6961 26.875 24.375 25.1961 24.375 23.125V23.125C24.375 21.0539 22.6961 19.375 20.625 19.375V19.375C18.5539 19.375 16.875 21.0539 16.875 23.125V26.875H20.625Z" fill="white" fill-opacity="0.75"/>
</g>
<path d="M16.875 26.875V11.875C16.875 9.80393 15.1961 8.125 13.125 8.125H9.375L9.375 23.125C9.375 25.1961 11.0539 26.875 13.125 26.875H16.875Z" fill="white"/>
</g>
<path d="M47.126 22.836H55.478V25.5H43.814V9.66H47.126V22.836ZM67.2033 13.5L62.3553 26.244C61.9713 27.332 61.5393 28.196 61.0593 28.836C60.5953 29.476 60.0513 29.94 59.4273 30.228C58.8193 30.516 58.0913 30.66 57.2433 30.66C56.6193 30.66 56.0433 30.58 55.5153 30.42C55.0033 30.276 54.5553 30.084 54.1713 29.844L54.8673 27.468C55.1713 27.708 55.4913 27.876 55.8273 27.972C56.1633 28.084 56.5473 28.14 56.9793 28.14C57.4273 28.14 57.8113 28.044 58.1313 27.852C58.4673 27.66 58.7473 27.276 58.9713 26.7L59.3793 25.668L58.0593 22.548L54.3873 13.5H58.0353L60.3153 20.7L60.9393 23.1L61.6833 20.556L63.8673 13.5H67.2033ZM69.0249 25.5V13.5H71.9769L72.1689 17.1L71.7609 16.716C71.9529 15.932 72.2569 15.284 72.6729 14.772C73.0889 14.26 73.5929 13.884 74.1849 13.644C74.7929 13.388 75.4569 13.26 76.1769 13.26C77.0089 13.26 77.7449 13.42 78.3849 13.74C79.0409 14.06 79.5529 14.548 79.9209 15.204C80.3049 15.844 80.4969 16.652 80.4969 17.628V25.5H77.2089V18.564C77.2089 17.54 77.0089 16.836 76.6089 16.452C76.2089 16.052 75.6889 15.852 75.0489 15.852C74.6009 15.852 74.1609 15.964 73.7289 16.188C73.3129 16.396 72.9689 16.74 72.6969 17.22C72.4409 17.7 72.3129 18.34 72.3129 19.14V25.5H69.0249ZM85.5403 11.772C84.8523 11.772 84.3403 11.628 84.0043 11.34C83.6683 11.036 83.5003 10.596 83.5003 10.02C83.5003 9.428 83.6683 8.988 84.0043 8.7C84.3403 8.396 84.8523 8.244 85.5403 8.244C86.2283 8.244 86.7403 8.396 87.0763 8.7C87.4123 8.988 87.5803 9.428 87.5803 10.02C87.5803 10.596 87.4123 11.036 87.0763 11.34C86.7403 11.628 86.2283 11.772 85.5403 11.772ZM87.1723 13.5V25.5H83.8843V13.5H87.1723ZM93.3217 13.5L96.4897 18.756L97.3777 18.732L102.178 25.5H98.3617L95.0737 20.124L94.1137 20.028L89.4817 13.5H93.3217ZM102.106 13.5L97.4737 19.956L96.4897 19.884L92.9857 25.5H89.2657L94.2337 18.684L95.1697 18.804L98.3857 13.5H102.106Z" fill="#262626"/>
<defs>
<filter id="filter0_b_9_85" x="13.8562" y="16.3562" width="13.5375" height="13.5375" filterUnits="userSpaceOnUse" color-interpolation-filters="sRGB">
<feFlood flood-opacity="0" result="BackgroundImageFix"/>
<feGaussianBlur in="BackgroundImageFix" stdDeviation="1.50938"/>
<feComposite in2="SourceAlpha" operator="in" result="effect1_backgroundBlur_9_85"/>
<feBlend mode="normal" in="SourceGraphic" in2="effect1_backgroundBlur_9_85" result="shape"/>
</filter>
<clipPath id="clip0_9_85">
<rect width="33.75" height="33.75" fill="white" transform="translate(0 0.625)"/>
</clipPath>
</defs>
</svg>
